<svg width="169" height="174" viewBox="0 0 169 174" fill="none" xmlns="http://www.w3.org/2000/svg">
<g clip-path="url(#clip0_1_424)">
<path d="M110.706 132.643C114.667 130.356 118.629 128.068 122.563 125.797C124.585 124.63 126.155 125.331 126.525 127.676C126.891 129.95 125.804 131.6 124.077 132.963C123.644 133.286 123.201 133.907 123.232 134.401C123.497 142.873 114.324 148.753 106.543 144.804C105.42 144.246 104.559 144.268 103.469 144.715C101.148 145.616 98.6165 144.702 97.5793 142.779C96.8312 141.421 97.0884 140.541 98.4272 139.768C102.494 137.348 106.592 134.981 110.706 132.643C110.69 132.615 110.69 132.615 110.706 132.643Z" fill="#F3FF00"/>
<path d="M105.875 124.213C109.781 121.957 113.716 119.686 117.622 117.43C119.289 116.468 120.642 116.856 121.592 118.5C122.541 120.145 122.216 121.538 120.55 122.501C112.682 127.043 104.813 131.586 96.9176 136.145C95.333 137.06 93.6891 136.547 92.7828 134.914C91.9398 133.391 92.3508 132.02 93.99 131.074C97.9357 128.759 101.913 126.5 105.875 124.213Z" fill="#F3FF00"/>
<path d="M21.3267 89.4477C21.6747 89.3564 22.3822 89.1307 23.094 88.9755C26.239 88.3658 29.384 87.756 32.5448 87.1736C34.5595 86.8144 36.061 87.7748 36.3375 89.5155C36.6096 91.1856 35.5055 92.554 33.6044 92.9207C30.1502 93.5628 26.6845 94.2481 23.2418 94.847C21.591 95.1424 20.3454 94.4362 19.8044 92.9944C19.2677 91.6232 19.7147 90.3784 21.3267 89.4477Z" fill="#F3FF00"/>
<path d="M113.534 47.0654C112.332 47.7594 110.787 47.4817 109.877 46.4725C108.95 45.4359 108.844 43.9261 109.754 42.8524C112.263 39.9421 114.787 37.0592 117.328 34.2037C118.441 32.9765 119.964 32.9012 121.113 33.8823C122.364 34.914 122.784 36.462 121.797 37.6536C119.23 40.7798 116.514 43.7731 113.857 46.8055C113.78 46.9234 113.643 47.0023 113.534 47.0654Z" fill="#F3FF00"/>
<path d="M45.3485 110.991C46.949 110.103 48.1325 110.261 49.0905 111.352C50.0327 112.416 50.24 113.722 49.3731 114.807C46.9045 117.913 44.3338 120.969 41.7156 123.942C40.712 125.106 38.9921 124.967 37.8816 123.927C36.7554 122.859 36.5854 121.24 37.5185 120.08C39.8634 117.264 42.2242 114.476 44.6124 111.672C44.9042 111.357 45.2824 111.066 45.3485 110.991Z" fill="#F3FF00"/>
<path d="M123.005 69.5906C122.266 67.6787 122.893 65.6724 124.68 65.2982C128.63 64.4428 132.605 63.7559 136.611 63.1239C137.942 62.9041 139.115 64.0537 139.343 65.4572C139.606 66.9862 138.836 68.4909 137.353 68.7621C133.481 69.4997 129.604 70.1666 125.702 70.6649C124.888 70.7694 123.92 69.9761 123.005 69.5906Z" fill="#F3FF00"/>
<path d="M39.9644 60.3408C39.818 61.4121 40.0095 62.6902 39.4416 63.347C38.8621 64.047 37.4012 64.6712 36.6087 64.4344C32.9054 63.3199 29.2438 61.9622 25.6324 60.5024C24.1252 59.9108 23.6401 57.9981 24.3603 56.5955C25.0417 55.252 26.6048 54.6784 28.1121 55.27C31.3265 56.484 34.525 57.6705 37.6848 58.9161C38.3952 59.2002 38.9778 59.7044 39.9644 60.3408Z" fill="#F3FF00"/>
<path d="M86.4094 19.8951C87.452 20.0605 88.6729 19.9038 89.3259 20.4039C90.0695 20.9978 90.7701 22.2744 90.6697 23.173C90.2289 26.8261 89.5019 30.4253 88.7908 34.0518C88.4676 35.7003 87.0397 36.6343 85.5814 36.3798C83.9506 36.0789 82.9638 34.7483 83.2122 33.0334C83.7666 29.3877 84.3799 25.7811 85.0638 22.1703C85.2161 21.4246 85.8156 20.8226 86.4094 19.8951Z" fill="#F3FF00"/>
<path d="M52.6236 37.7203C51.7849 36.2676 50.9189 34.8308 50.0917 33.3349C49.217 31.7568 49.5216 30.2653 50.8014 29.4534C52.245 28.5468 53.9075 28.9026 54.8685 30.5039C56.6638 33.4874 58.3887 36.4749 60.0748 39.5214C60.9178 41.0447 60.4248 42.4622 58.961 43.2708C57.5245 44.0636 56.1007 43.6797 55.1915 42.2311C54.3643 40.7353 53.494 39.2278 52.6236 37.7203Z" fill="#F3FF00"/>
<path d="M105.99 55.514C88.7031 37.9393 59.8875 42.4796 48.6977 64.3621C40.2378 80.9408 45.9871 101.12 62.0007 110.622C65.3173 112.581 69.0336 113.907 72.622 115.454C78.4166 117.919 83.6634 121.139 87.4064 126.36C88.8751 128.399 90.2284 128.787 92.3594 127.557C96.2001 125.376 100.009 123.14 103.834 120.932C103.834 120.932 103.834 120.932 103.85 120.959C107.729 118.719 111.582 116.495 115.461 114.255C117.538 113.057 117.805 111.879 116.918 109.65C116.131 107.656 115.383 105.603 114.972 103.501C113.89 98.0957 114.493 92.7044 115.41 87.3513C117.47 75.2716 114.724 64.3952 105.99 55.514Z" fill="#F3FF00"/>
</g>
<defs>
<clipPath id="clip0_1_424">
<rect width="117.639" height="132.926" fill="white" transform="translate(0 58.8197) rotate(-30)"/>
</clipPath>
</defs>
</svg>
