<svg width="64" height="64" viewBox="0 0 64 64" fill="none" xmlns="http://www.w3.org/2000/svg">
<path d="M56.5378 17.1722L53.524 5.9245C52.6678 2.72912 46.6487 -0.726778 43.438 0.133539L32.2646 3.12744C30.0813 3.71245 28.8912 5.94923 29.4391 7.99428L30.8433 13.2347C31.4255 15.4076 33.6688 16.5874 35.7236 16.0368L41.8883 14.385L43.5322 20.5201C44.1144 22.693 46.3576 23.8728 48.4125 23.3222L53.6781 21.9113C55.8957 21.4541 57.0858 19.2173 56.5378 17.1722Z" fill="#BC1E3C"/>
<path d="M63.5929 43.5022L60.6133 32.3823C60.0311 30.2094 57.7879 29.0296 55.733 29.5802L50.4674 30.9911C48.2841 31.5761 47.094 33.8129 47.6419 35.8579L49.2858 41.9931L43.1212 43.6449C40.9379 44.2299 39.7478 46.4667 40.2957 48.5117L41.6999 53.7521C42.2821 55.925 44.5254 57.1048 46.5802 56.5542L57.8821 53.5259C60.9301 52.5722 64.4149 46.5697 63.5929 43.5022Z" fill="#BC1E3C"/>
<path d="M16.0824 28.0122L14.4385 21.8771L20.6032 20.2253C22.7865 19.6403 23.9766 17.4035 23.4286 15.3585L22.0245 10.118C21.4422 7.94517 19.199 6.76534 17.1441 7.31595L5.97074 10.3098C2.75999 11.1702 -0.72473 17.1726 0.13147 20.368L3.11105 31.4879C3.69326 33.6608 5.9365 34.8406 7.99138 34.29L13.257 32.8791C15.3119 32.3285 16.6304 30.0573 16.0824 28.0122Z" fill="#BC1E3C"/>
<path d="M34.2167 55.6202L32.8126 50.3798C32.2304 48.207 29.9871 47.0271 27.9322 47.5777L21.7676 49.2296L20.1237 43.0944C19.5415 40.9216 17.2983 39.7417 15.2434 40.2923L9.97776 41.7033C7.79446 42.2883 6.60434 44.5251 7.15231 46.5701L10.1319 57.69C10.9881 60.8854 17.0072 64.3413 20.2179 63.481L31.3913 60.4871C33.4462 59.9365 34.799 57.7931 34.2167 55.6202Z" fill="#BC1E3C"/>
<path d="M41.1862 27.1764C47.8046 42.116 23.9252 49.0624 21.3823 32.8938C19.7555 21.6853 36.6398 16.8872 41.1862 27.1764Z" fill="#BC1E3C"/>
</svg>
