<svg width="157" height="170" viewBox="0 0 157 170" fill="none" xmlns="http://www.w3.org/2000/svg">
<g clip-path="url(#clip0_1_437)">
<path d="M130.462 76.9927C138.886 88.7718 144.252 101.716 147.502 115.514C148.521 119.977 146.563 124.097 142.758 125.523C138.652 127.071 134.421 125.637 132.28 121.911C131.947 121.287 131.632 120.574 131.459 119.845C128.34 104.966 121.627 91.8332 112.478 79.7645C99.1943 62.2151 82.1356 49.9789 61.2656 43.233C56.5039 41.6876 51.5792 40.7089 46.6896 39.7837C41.322 38.7128 38.1335 35.1385 38.8365 30.3873C39.4861 25.6712 43.6377 22.5618 48.7945 23.3116C72.2401 26.5276 92.3439 36.7641 109.878 52.5182C117.885 59.8214 125.002 67.8632 130.462 76.9927Z" fill="#00FFB6"/>
<path d="M102.012 94.4505C106.736 102.225 110.464 110.347 112.876 119.027C114.299 124.221 111.823 128.834 106.974 129.95C102.356 131.068 97.8334 128.14 96.7285 123.198C93.7932 110.112 86.8878 99.4808 76.8837 90.8842C69.0855 84.1328 60.3565 78.7586 50.1021 76.3011C47.8176 75.7332 45.5148 75.254 43.1951 74.6326C38.2198 73.2276 35.3378 68.8392 36.412 64.3038C37.4861 59.7685 41.9358 57.2293 47.2148 58.2818C63.5833 61.5497 77.9399 68.9729 89.8939 80.6551C94.2492 84.8418 97.9789 89.8225 102.012 94.4505Z" fill="#00FFB6"/>
<path d="M72.4603 106.504C75.338 111.585 78.4294 116.525 80.898 121.798C83.2964 126.963 81.3534 131.456 76.7322 133.036C72.0043 134.685 67.7262 132.363 65.6822 127.271C60.8237 115.448 52.1763 108.336 39.5446 105.984C33.893 104.946 31.4806 102.088 31.0153 96.955C30.6485 93.1362 36.587 87.8575 40.7314 88.8125C52.0852 91.3139 61.9684 96.4664 70.3979 104.412C71.0502 105.056 71.4523 106.017 71.9794 106.82C72.1046 106.661 72.3 106.61 72.4603 106.504Z" fill="#00FFB6"/>
</g>
<defs>
<clipPath id="clip0_1_437">
<rect width="95.6795" height="139.64" fill="white" transform="translate(0 52.5216) rotate(-33.2938)"/>
</clipPath>
</defs>
</svg>
