<svg width="1224" height="487" viewBox="0 0 1224 487" fill="none" xmlns="http://www.w3.org/2000/svg">
<rect width="1223.11" height="470.222" fill="#F3FF00"/>
<path opacity="0.6" d="M734.439 261.166C727.876 252.531 715.48 240.298 694.334 221.589C683.396 211.515 666.625 196.404 657.145 186.33L729.334 79.8333C735.897 70.4789 734.439 57.5265 726.418 49.6112C721.313 43.8546 714.751 41.6959 708.188 41.6959C703.813 41.6959 699.438 43.1351 695.792 45.2938L491.621 161.865C485.788 165.463 482.142 170.5 479.954 176.976C474.85 196.404 485.058 207.198 488.704 210.796C488.704 210.796 488.704 210.796 488.704 210.076C495.267 219.431 508.392 231.663 528.809 250.372C539.747 260.446 556.518 275.557 565.998 285.631L494.538 391.409C487.975 400.763 489.433 413.716 497.454 421.631C502.559 426.668 509.121 429.546 515.684 429.546C520.059 429.546 524.434 428.107 528.08 425.948L732.251 309.377C738.085 305.78 741.731 300.743 743.918 294.266C748.293 275.557 738.085 264.764 734.439 261.166Z" fill="#FBFFFE"/>
<path d="M0 430.222H1223.11V472C1223.11 479.855 1216.74 486.222 1208.89 486.222H14.2222C6.36744 486.222 0 479.855 0 472V430.222Z" fill="#F3FF00"/>
</svg>
