<svg width="30" height="30" viewBox="0 0 30 30" fill="none" xmlns="http://www.w3.org/2000/svg">
<path d="M10.5263 0L4.35088 0C2.59649 0 0 2.60897 0 4.3718L0 10.5064C0 11.7051 0.982456 12.6218 2.10526 12.6218H4.98246C6.17544 12.6218 7.08772 11.6346 7.08772 10.5064L7.08772 7.1218L10.4561 7.1218C11.6491 7.1218 12.5614 6.13462 12.5614 5.00641V2.11538C12.6316 0.916667 11.6491 0 10.5263 0Z" fill="#2E337F"/>
<path d="M24.9825 0L18.8772 0C17.6842 0 16.7719 0.98718 16.7719 2.11538V5.00641C16.7719 6.20513 17.7544 7.1218 18.8772 7.1218H22.2456V10.5064C22.2456 11.7051 23.2281 12.6218 24.3509 12.6218H27.2281C28.4211 12.6218 29.3333 11.6346 29.3333 10.5064V4.30128C29.2632 2.60897 26.6667 0 24.9825 0Z" fill="#2E337F"/>
<path d="M10.5263 22.2115H7.15789V18.8269C7.15789 17.6282 6.17544 16.7115 5.05263 16.7115H2.17544C0.982456 16.7115 0.0701754 17.6987 0.0701754 18.8269L0.0701754 24.9615C0.0701754 26.7244 2.66667 29.3333 4.42105 29.3333H10.5263C11.7193 29.3333 12.6316 28.3462 12.6316 27.2179V24.3269C12.6316 23.1987 11.6491 22.2115 10.5263 22.2115Z" fill="#2E337F"/>
<path d="M27.1579 16.7115H24.2807C23.0877 16.7115 22.1754 17.6987 22.1754 18.8269V22.2115H18.807C17.614 22.2115 16.7018 23.1987 16.7018 24.3269V27.2179C16.7018 28.4167 17.6842 29.3333 18.807 29.3333H24.9123C26.6667 29.3333 29.2632 26.7244 29.2632 24.9615V18.8269C29.2632 17.6987 28.3509 16.7115 27.1579 16.7115Z" fill="#2E337F"/>
<path d="M13.5439 9.23718C22.1053 7.89744 22.386 21.0833 13.7544 20.1667C7.78947 19.4615 7.64912 10.1538 13.5439 9.23718Z" fill="#2E337F"/>
</svg>
